<svg width="135" height="41" viewBox="0 0 135 41" fill="none" xmlns="http://www.w3.org/2000/svg">
  <g clip-path="url(#clip0_148_126)">
  <path d="M130.197 40.9731H4.729C2.122 40.9731 0 38.8451 0 36.2401V5.69908C0 3.09308 2.122 0.973083 4.729 0.973083H130.197C132.803 0.973083 135 3.09308 135 5.69908V36.2401C135 38.8451 132.803 40.9731 130.197 40.9731Z" fill="#A6A6A6"/>
  <path d="M134.032 36.2411C134.032 38.3571 132.318 40.0711 130.198 40.0711H4.72901C2.61001 40.0711 0.890015 38.3571 0.890015 36.2411V5.69808C0.890015 3.58308 2.61001 1.86308 4.72901 1.86308H130.197C132.318 1.86308 134.031 3.58308 134.031 5.69808L134.032 36.2411Z" fill="black"/>
  <path d="M30.128 20.7571C30.099 17.5341 32.767 15.9661 32.889 15.8931C31.378 13.6901 29.036 13.3891 28.213 13.3651C26.246 13.1581 24.338 14.5421 23.336 14.5421C22.314 14.5421 20.771 13.3851 19.108 13.4191C16.968 13.4521 14.966 14.6911 13.868 16.6151C11.602 20.5381 13.292 26.3031 15.463 29.4741C16.549 31.0271 17.818 32.7611 19.479 32.7001C21.104 32.6331 21.711 31.6641 23.672 31.6641C25.615 31.6641 26.185 32.7001 27.879 32.6611C29.623 32.6331 30.721 31.1011 31.769 29.5341C33.024 27.7541 33.528 26.0011 33.548 25.9111C33.507 25.8971 30.161 24.6201 30.128 20.7571Z" fill="white"/>
  <path d="M26.9279 11.2791C27.8019 10.1861 28.3999 8.69908 28.2339 7.19008C26.9689 7.24608 25.3869 8.06508 24.4759 9.13408C23.6699 10.0761 22.9499 11.6201 23.1359 13.0721C24.5569 13.1781 26.0159 12.3551 26.9279 11.2791Z" fill="white"/>
  <path d="M53.645 32.4771H51.374L50.13 28.5681H45.806L44.621 32.4771H42.41L46.694 19.1691H49.34L53.645 32.4771ZM49.755 26.9281L48.63 23.4531C48.511 23.0981 48.288 22.2621 47.959 20.9461H47.919C47.788 21.5121 47.577 22.3481 47.287 23.4531L46.182 26.9281H49.755Z" fill="white"/>
  <path d="M64.662 27.5611C64.662 29.1931 64.221 30.4831 63.339 31.4301C62.549 32.2731 61.568 32.6941 60.397 32.6941C59.133 32.6941 58.225 32.2401 57.672 31.3321H57.632V36.3871H55.5V26.0401C55.5 25.0141 55.473 23.9611 55.421 22.8811H57.296L57.415 24.4021H57.455C58.166 23.2561 59.245 22.6841 60.693 22.6841C61.825 22.6841 62.77 23.1311 63.526 24.0261C64.284 24.9221 64.662 26.1001 64.662 27.5611ZM62.49 27.6391C62.49 26.7051 62.28 25.9351 61.858 25.3291C61.397 24.6971 60.778 24.3811 60.002 24.3811C59.476 24.3811 58.998 24.5571 58.571 24.9041C58.143 25.2541 57.863 25.7111 57.732 26.2771C57.666 26.5411 57.633 26.7571 57.633 26.9271V28.5271C57.633 29.2251 57.847 29.8141 58.275 30.2951C58.703 30.7761 59.259 31.0161 59.943 31.0161C60.746 31.0161 61.371 30.7061 61.818 30.0881C62.266 29.4691 62.49 28.6531 62.49 27.6391Z" fill="white"/>
  <path d="M75.699 27.5611C75.699 29.1931 75.258 30.4831 74.375 31.4301C73.586 32.2731 72.605 32.6941 71.434 32.6941C70.17 32.6941 69.262 32.2401 68.71 31.3321H68.67V36.3871H66.538V26.0401C66.538 25.0141 66.511 23.9611 66.459 22.8811H68.334L68.453 24.4021H68.493C69.203 23.2561 70.282 22.6841 71.731 22.6841C72.862 22.6841 73.807 23.1311 74.565 24.0261C75.32 24.9221 75.699 26.1001 75.699 27.5611ZM73.527 27.6391C73.527 26.7051 73.316 25.9351 72.894 25.3291C72.433 24.6971 71.816 24.3811 71.039 24.3811C70.512 24.3811 70.035 24.5571 69.607 24.9041C69.179 25.2541 68.9 25.7111 68.769 26.2771C68.704 26.5411 68.67 26.7571 68.67 26.9271V28.5271C68.67 29.2251 68.884 29.8141 69.31 30.2951C69.738 30.7751 70.294 31.0161 70.98 31.0161C71.783 31.0161 72.408 30.7061 72.855 30.0881C73.303 29.4691 73.527 28.6531 73.527 27.6391Z" fill="white"/>
  <path d="M88.0391 28.7451C88.0391 29.8771 87.6461 30.7981 86.8571 31.5091C85.9901 32.2861 84.7831 32.6741 83.2321 32.6741C81.8001 32.6741 80.6521 32.3981 79.7831 31.8451L80.2771 30.0681C81.2131 30.6341 82.2401 30.9181 83.3591 30.9181C84.1621 30.9181 84.7871 30.7361 85.2361 30.3741C85.6831 30.0121 85.9061 29.5261 85.9061 28.9201C85.9061 28.3801 85.7221 27.9251 85.3531 27.5561C84.9861 27.1871 84.3731 26.8441 83.5171 26.5271C81.1871 25.6581 80.0231 24.3851 80.0231 22.7111C80.0231 21.6171 80.4311 20.7201 81.2481 20.0221C82.0621 19.3231 83.1481 18.9741 84.5061 18.9741C85.7171 18.9741 86.7231 19.1851 87.5261 19.6061L86.9931 21.3441C86.2431 20.9361 85.3951 20.7321 84.4461 20.7321C83.6961 20.7321 83.1101 20.9171 82.6901 21.2851C82.3351 21.6141 82.1571 22.0151 82.1571 22.4901C82.1571 23.0161 82.3601 23.4511 82.7681 23.7931C83.1231 24.1091 83.7681 24.4511 84.7041 24.8201C85.8491 25.2811 86.6901 25.8201 87.2311 26.4381C87.7701 27.0541 88.0391 27.8251 88.0391 28.7451Z" fill="white"/>
  <path d="M95.088 24.4811H92.738V29.1401C92.738 30.3251 93.152 30.9171 93.982 30.9171C94.363 30.9171 94.679 30.8841 94.929 30.8181L94.988 32.4371C94.568 32.5941 94.015 32.6731 93.33 32.6731C92.488 32.6731 91.83 32.4161 91.355 31.9031C90.882 31.3891 90.644 30.5271 90.644 29.3161V24.4791H89.244V22.8791H90.644V21.1221L92.738 20.4901V22.8791H95.088V24.4811Z" fill="white"/>
  <path d="M105.691 27.6001C105.691 29.0751 105.269 30.2861 104.427 31.2331C103.544 32.2081 102.372 32.6941 100.911 32.6941C99.503 32.6941 98.382 32.2271 97.546 31.2931C96.71 30.3591 96.292 29.1801 96.292 27.7591C96.292 26.2721 96.722 25.0541 97.585 24.1071C98.446 23.1591 99.608 22.6851 101.069 22.6851C102.477 22.6851 103.61 23.1521 104.465 24.0871C105.283 24.9941 105.691 26.1651 105.691 27.6001ZM103.479 27.6691C103.479 26.7841 103.29 26.0251 102.907 25.3921C102.46 24.6261 101.821 24.2441 100.993 24.2441C100.136 24.2441 99.485 24.6271 99.038 25.3921C98.655 26.0261 98.466 26.7971 98.466 27.7091C98.466 28.5941 98.655 29.3531 99.038 29.9851C99.499 30.7511 100.143 31.1331 100.974 31.1331C101.788 31.1331 102.427 30.7431 102.888 29.9651C103.281 29.3201 103.479 28.5531 103.479 27.6691Z" fill="white"/>
  <path d="M112.621 24.7561C112.41 24.7171 112.185 24.6971 111.949 24.6971C111.199 24.6971 110.619 24.9801 110.211 25.5471C109.856 26.0471 109.678 26.6791 109.678 27.4421V32.4771H107.547L107.567 25.9031C107.567 24.7971 107.54 23.7901 107.487 22.8821H109.344L109.422 24.7181H109.481C109.706 24.0871 110.061 23.5791 110.547 23.1981C111.022 22.8551 111.535 22.6841 112.088 22.6841C112.285 22.6841 112.463 22.6981 112.621 22.7231V24.7561Z" fill="white"/>
  <path d="M122.156 27.2251C122.156 27.6071 122.131 27.9291 122.078 28.1921H115.682C115.707 29.1401 116.016 29.8651 116.61 30.3651C117.149 30.8121 117.846 31.0361 118.702 31.0361C119.649 31.0361 120.513 30.8851 121.29 30.5821L121.624 32.0621C120.716 32.4581 119.644 32.6551 118.407 32.6551C116.919 32.6551 115.751 32.2171 114.901 31.3421C114.053 30.4671 113.628 29.2921 113.628 27.8181C113.628 26.3711 114.023 25.1661 114.814 24.2051C115.642 23.1791 116.761 22.6661 118.169 22.6661C119.552 22.6661 120.599 23.1791 121.31 24.2051C121.873 25.0201 122.156 26.0281 122.156 27.2251ZM120.123 26.6721C120.137 26.0401 119.998 25.4941 119.709 25.0331C119.34 24.4401 118.773 24.1441 118.01 24.1441C117.313 24.1441 116.746 24.4331 116.313 25.0131C115.958 25.4741 115.747 26.0271 115.682 26.6711H120.123V26.6721Z" fill="white"/>
  <path d="M49.05 10.9821C49.05 12.1591 48.697 13.0451 47.992 13.6401C47.339 14.1891 46.411 14.4641 45.209 14.4641C44.613 14.4641 44.103 14.4381 43.676 14.3861V7.95508C44.233 7.86508 44.833 7.81908 45.481 7.81908C46.626 7.81908 47.489 8.06808 48.071 8.56608C48.723 9.12908 49.05 9.93408 49.05 10.9821ZM47.945 11.0111C47.945 10.2481 47.743 9.66308 47.339 9.25508C46.935 8.84808 46.345 8.64408 45.568 8.64408C45.238 8.64408 44.957 8.66608 44.724 8.71208V13.6011C44.853 13.6211 45.089 13.6301 45.432 13.6301C46.234 13.6301 46.853 13.4071 47.289 12.9611C47.725 12.5151 47.945 11.8651 47.945 11.0111Z" fill="white"/>
  <path d="M54.909 12.0101C54.909 12.7351 54.702 13.3291 54.288 13.7951C53.854 14.2741 53.279 14.5131 52.561 14.5131C51.869 14.5131 51.318 14.2841 50.907 13.8241C50.497 13.3651 50.292 12.7861 50.292 12.0881C50.292 11.3581 50.503 10.7591 50.927 10.2941C51.351 9.82908 51.921 9.59608 52.639 9.59608C53.331 9.59608 53.887 9.82508 54.308 10.2841C54.708 10.7301 54.909 11.3061 54.909 12.0101ZM53.822 12.0441C53.822 11.6091 53.728 11.2361 53.541 10.9251C53.321 10.5491 53.008 10.3611 52.601 10.3611C52.18 10.3611 51.86 10.5491 51.64 10.9251C51.452 11.2361 51.359 11.6151 51.359 12.0631C51.359 12.4981 51.453 12.8711 51.64 13.1821C51.867 13.5581 52.183 13.7461 52.591 13.7461C52.991 13.7461 53.305 13.5551 53.531 13.1721C53.725 12.8551 53.822 12.4791 53.822 12.0441Z" fill="white"/>
  <path d="M62.7651 9.69208L61.2901 14.4061H60.3301L59.7191 12.3591C59.5641 11.8481 59.4381 11.3401 59.3401 10.8361H59.3211C59.2301 11.3541 59.1041 11.8611 58.9421 12.3591L58.2931 14.4061H57.3221L55.9351 9.69208H57.0121L57.5451 11.9331C57.6741 12.4631 57.7801 12.9681 57.8651 13.4461H57.8841C57.9621 13.0521 58.0911 12.5501 58.2731 11.9431L58.9421 9.69308H59.7961L60.4371 11.8951C60.5921 12.4321 60.7181 12.9491 60.8151 13.4471H60.8441C60.9151 12.9621 61.0221 12.4451 61.1641 11.8951L61.7361 9.69308H62.7651V9.69208Z" fill="white"/>
  <path d="M68.198 14.4061H67.15V11.7061C67.15 10.8741 66.834 10.4581 66.2 10.4581C65.889 10.4581 65.638 10.5721 65.443 10.8011C65.25 11.0301 65.152 11.3001 65.152 11.6091V14.4051H64.104V11.0391C64.104 10.6251 64.091 10.1761 64.066 9.69008H64.987L65.036 10.4271H65.065C65.187 10.1981 65.369 10.0091 65.608 9.85808C65.892 9.68208 66.21 9.59308 66.558 9.59308C66.998 9.59308 67.364 9.73508 67.655 10.0201C68.017 10.3691 68.198 10.8901 68.198 11.5821V14.4061Z" fill="white"/>
  <path d="M71.088 14.4061H70.041V7.52908H71.088V14.4061Z" fill="white"/>
  <path d="M77.258 12.0101C77.258 12.7351 77.051 13.3291 76.637 13.7951C76.203 14.2741 75.627 14.5131 74.91 14.5131C74.217 14.5131 73.666 14.2841 73.256 13.8241C72.846 13.3651 72.641 12.7861 72.641 12.0881C72.641 11.3581 72.852 10.7591 73.276 10.2941C73.7 9.82908 74.27 9.59608 74.987 9.59608C75.68 9.59608 76.235 9.82508 76.657 10.2841C77.057 10.7301 77.258 11.3061 77.258 12.0101ZM76.17 12.0441C76.17 11.6091 76.076 11.2361 75.889 10.9251C75.67 10.5491 75.356 10.3611 74.95 10.3611C74.528 10.3611 74.208 10.5491 73.989 10.9251C73.801 11.2361 73.708 11.6151 73.708 12.0631C73.708 12.4981 73.802 12.8711 73.989 13.1821C74.216 13.5581 74.532 13.7461 74.94 13.7461C75.34 13.7461 75.653 13.5551 75.879 13.1721C76.074 12.8551 76.17 12.4791 76.17 12.0441Z" fill="white"/>
  <path d="M82.3301 14.4061H81.3891L81.3111 13.8631H81.2821C80.9601 14.2961 80.5011 14.5131 79.9051 14.5131C79.4601 14.5131 79.1001 14.3701 78.8291 14.0861C78.5831 13.8281 78.4601 13.5071 78.4601 13.1261C78.4601 12.5501 78.7001 12.1111 79.1831 11.8071C79.6651 11.5031 80.3431 11.3541 81.2161 11.3611V11.2731C81.2161 10.6521 80.8901 10.3421 80.2371 10.3421C79.7721 10.3421 79.3621 10.4591 79.0081 10.6911L78.7951 10.0031C79.2331 9.73208 79.7741 9.59608 80.4121 9.59608C81.6441 9.59608 82.2621 10.2461 82.2621 11.5461V13.2821C82.2621 13.7531 82.2851 14.1281 82.3301 14.4061ZM81.2421 12.7861V12.0591C80.0861 12.0391 79.5081 12.3561 79.5081 13.0091C79.5081 13.2551 79.5741 13.4391 79.7091 13.5621C79.8441 13.6851 80.0161 13.7461 80.2211 13.7461C80.4511 13.7461 80.6661 13.6731 80.8621 13.5281C81.0591 13.3821 81.1801 13.1971 81.2251 12.9701C81.2361 12.9191 81.2421 12.8571 81.2421 12.7861Z" fill="white"/>
  <path d="M88.285 14.4061H87.355L87.306 13.6491H87.277C86.98 14.2251 86.474 14.5131 85.763 14.5131C85.195 14.5131 84.722 14.2901 84.347 13.8441C83.972 13.3981 83.785 12.8191 83.785 12.1081C83.785 11.3451 83.988 10.7271 84.396 10.2551C84.791 9.81508 85.275 9.59508 85.851 9.59508C86.484 9.59508 86.927 9.80808 87.179 10.2351H87.199V7.52908H88.248V13.1361C88.248 13.5951 88.26 14.0181 88.285 14.4061ZM87.199 12.4181V11.6321C87.199 11.4961 87.189 11.3861 87.17 11.3021C87.111 11.0501 86.984 10.8381 86.791 10.6671C86.596 10.4961 86.361 10.4101 86.09 10.4101C85.699 10.4101 85.393 10.5651 85.168 10.8761C84.945 11.1871 84.832 11.5841 84.832 12.0691C84.832 12.5351 84.939 12.9131 85.154 13.2041C85.381 13.5141 85.687 13.6691 86.07 13.6691C86.414 13.6691 86.689 13.5401 86.898 13.2811C87.1 13.0421 87.199 12.7541 87.199 12.4181Z" fill="white"/>
  <path d="M97.248 12.0101C97.248 12.7351 97.041 13.3291 96.627 13.7951C96.193 14.2741 95.619 14.5131 94.9 14.5131C94.209 14.5131 93.658 14.2841 93.246 13.8241C92.836 13.3651 92.631 12.7861 92.631 12.0881C92.631 11.3581 92.842 10.7591 93.266 10.2941C93.69 9.82908 94.26 9.59608 94.979 9.59608C95.67 9.59608 96.227 9.82508 96.647 10.2841C97.047 10.7301 97.248 11.3061 97.248 12.0101ZM96.162 12.0441C96.162 11.6091 96.068 11.2361 95.881 10.9251C95.66 10.5491 95.348 10.3611 94.94 10.3611C94.52 10.3611 94.2 10.5491 93.979 10.9251C93.791 11.2361 93.698 11.6151 93.698 12.0631C93.698 12.4981 93.792 12.8711 93.979 13.1821C94.206 13.5581 94.522 13.7461 94.93 13.7461C95.33 13.7461 95.645 13.5551 95.871 13.1721C96.064 12.8551 96.162 12.4791 96.162 12.0441Z" fill="white"/>
  <path d="M102.883 14.4061H101.836V11.7061C101.836 10.8741 101.52 10.4581 100.885 10.4581C100.574 10.4581 100.323 10.5721 100.129 10.8011C99.9351 11.0301 99.8381 11.3001 99.8381 11.6091V14.4051H98.7891V11.0391C98.7891 10.6251 98.7771 10.1761 98.7521 9.69008H99.6721L99.7211 10.4271H99.7501C99.8731 10.1981 100.055 10.0091 100.293 9.85808C100.578 9.68208 100.895 9.59308 101.244 9.59308C101.683 9.59308 102.049 9.73508 102.34 10.0201C102.703 10.3691 102.883 10.8901 102.883 11.5821V14.4061Z" fill="white"/>
  <path d="M109.936 10.4771H108.782V12.7671C108.782 13.3491 108.987 13.6401 109.393 13.6401C109.581 13.6401 109.737 13.6241 109.86 13.5911L109.887 14.3861C109.68 14.4641 109.408 14.5031 109.073 14.5031C108.659 14.5031 108.337 14.3771 108.104 14.1251C107.87 13.8731 107.754 13.4491 107.754 12.8541V10.4771H107.065V9.69208H107.754V8.82808L108.781 8.51808V9.69108H109.935V10.4771H109.936Z" fill="white"/>
  <path d="M115.484 14.4061H114.435V11.7261C114.435 10.8811 114.119 10.4581 113.486 10.4581C113 10.4581 112.668 10.7031 112.486 11.1931C112.455 11.2961 112.437 11.4221 112.437 11.5701V14.4051H111.39V7.52908H112.437V10.3701H112.457C112.787 9.85308 113.26 9.59508 113.873 9.59508C114.307 9.59508 114.666 9.73708 114.951 10.0221C115.306 10.3771 115.484 10.9051 115.484 11.6031V14.4061Z" fill="white"/>
  <path d="M121.207 11.8261C121.207 12.0141 121.193 12.1721 121.168 12.3011H118.025C118.039 12.7671 118.189 13.1221 118.48 13.3681C118.746 13.5881 119.089 13.6981 119.509 13.6981C119.974 13.6981 120.398 13.6241 120.78 13.4751L120.944 14.2031C120.497 14.3971 119.971 14.4941 119.362 14.4941C118.632 14.4941 118.057 14.2791 117.641 13.8491C117.223 13.4191 117.016 12.8421 117.016 12.1181C117.016 11.4071 117.209 10.8151 117.598 10.3431C118.004 9.83908 118.553 9.58708 119.246 9.58708C119.924 9.58708 120.439 9.83908 120.787 10.3431C121.068 10.7431 121.207 11.2381 121.207 11.8261ZM120.207 11.5551C120.215 11.2441 120.146 10.9761 120.004 10.7501C119.822 10.4591 119.545 10.3131 119.17 10.3131C118.828 10.3131 118.549 10.4551 118.336 10.7401C118.162 10.9671 118.059 11.2381 118.025 11.5551H120.207Z" fill="white"/>
  </g>
  <defs>
  <clipPath id="clip0_148_126">
  <rect width="135" height="40" fill="white" transform="translate(0 0.973083)"/>
  </clipPath>
  </defs>
</svg>
