<svg width="246" height="85" viewBox="0 0 246 85" fill="none" xmlns="http://www.w3.org/2000/svg">
<path d="M245.9 3.82543e-06L245.9 29L244.1 29L244.1 3.80396e-06L245.9 3.82543e-06ZM237 37.9L9.00002 37.9L9.00002 36.1L237 36.1L237 37.9ZM0.100006 29L0.100007 8.94294e-07L1.90001 9.15759e-07L1.90001 29L0.100006 29ZM9.00002 37.9C4.08467 37.9 0.100006 33.9153 0.100006 29L1.90001 29C1.90001 32.9212 5.0788 36.1 9.00002 36.1L9.00002 37.9ZM245.9 29C245.9 33.9153 241.915 37.9 237 37.9L237 36.1C240.921 36.1 244.1 32.9212 244.1 29L245.9 29Z" fill="#FDA425" fill-opacity="0.6"/>
<path d="M123 0L123 37" stroke="#FDA425" stroke-opacity="0.6" stroke-width="1.8"/>
<path d="M63.4275 84L68.6236 75L58.2313 75L63.4275 84ZM64.3274 75.9L64.3272 37L62.5272 37L62.5274 75.9L64.3274 75.9Z" fill="#FDA425" fill-opacity="0.6"/>
<path d="M182.967 84.5L188.163 75.5L177.771 75.5L182.967 84.5ZM183.867 76.4L183.867 37L182.067 37L182.067 76.4L183.867 76.4Z" fill="#FDA425" fill-opacity="0.6"/>
</svg>
