<svg width="179" height="75" viewBox="0 0 179 75" fill="none" xmlns="http://www.w3.org/2000/svg">
<path d="M88.9673 74.5L94.1634 65.5L83.7711 65.5L88.9673 74.5ZM89.8672 66.4L89.867 27L88.067 27L88.0672 66.4L89.8672 66.4Z" fill="#FDA425" fill-opacity="0.6"/>
<path d="M178.4 1.91808e-06L178.4 18L176.6 18L176.6 1.89662e-06L178.4 1.91808e-06ZM169.5 26.9L9.5 26.9L9.5 25.1L169.5 25.1L169.5 26.9ZM0.600006 18L0.600006 -2.02163e-07L2.39999 -1.80698e-07L2.39999 18L0.600006 18ZM9.5 26.9C4.58467 26.9 0.600006 22.9153 0.600006 18L2.39999 18C2.39999 21.9212 5.57878 25.1 9.5 25.1L9.5 26.9ZM178.4 18C178.4 22.9153 174.415 26.9 169.5 26.9L169.5 25.1C173.421 25.1 176.6 21.9212 176.6 18L178.4 18Z" fill="#FDA425" fill-opacity="0.6"/>
</svg>
