<svg width="56" height="251" viewBox="0 0 56 251" fill="none" xmlns="http://www.w3.org/2000/svg">
<path d="M0.118273 0.475244H19.9727V2.27524H0.118273V0.475244ZM28.8727 9.37524V241.767H27.0727V9.37524H28.8727ZM19.9727 250.667H0.118273V248.867H19.9727V250.667ZM28.8727 241.767C28.8727 246.682 24.888 250.667 19.9727 250.667V248.867C23.8939 248.867 27.0727 245.688 27.0727 241.767H28.8727ZM19.9727 0.475244C24.888 0.475244 28.8727 4.45991 28.8727 9.37524H27.0727C27.0727 5.45402 23.8939 2.27524 19.9727 2.27524V0.475244Z" fill="#FDA425" fill-opacity="0.6"/>
<path d="M55.8293 126.951L46.8293 121.755V132.147L55.8293 126.951ZM27.9727 127.851H47.7293V126.051H27.9727V127.851Z" fill="#FDA425" fill-opacity="0.6"/>
</svg>
