<svg width="102" height="505" viewBox="0 0 102 505" fill="none" xmlns="http://www.w3.org/2000/svg">
<path d="M5.97318 0.266504H34.7393V2.0665H5.97318V0.266504ZM43.6393 9.1665V495.484H41.8393V9.1665H43.6393ZM34.7393 504.384H5.97318V502.584H34.7393V504.384ZM43.6393 495.484C43.6393 500.399 39.6546 504.384 34.7393 504.384V502.584C38.6605 502.584 41.8393 499.405 41.8393 495.484H43.6393ZM34.7393 0.266504C39.6546 0.266504 43.6393 4.25117 43.6393 9.1665H41.8393C41.8393 5.24528 38.6605 2.0665 34.7393 2.0665V0.266504Z" fill="#FDA425" fill-opacity="0.6"/>
<path d="M0 249.179L41.8406 249.179" stroke="#FDA425" stroke-opacity="0.6" stroke-width="1.8"/>
<path d="M101.072 119.697L92.0724 114.501L92.0724 124.893L101.072 119.697ZM92.9724 118.797L42.1004 118.797L42.1004 120.597L92.9724 120.597L92.9724 118.797Z" fill="#FDA425" fill-opacity="0.6"/>
<path d="M101.072 376.767L92.0724 381.963L92.0724 371.571L101.072 376.767ZM92.9724 377.667L43.9085 377.667L43.9085 375.867L92.9724 375.867L92.9724 377.667Z" fill="#FDA425" fill-opacity="0.6"/>
</svg>
