<svg width="135" height="41" viewBox="0 0 135 41" fill="none" xmlns="http://www.w3.org/2000/svg">
  <g clip-path="url(#clip0_148_100)">
  <path d="M130 40.9231H5C2.2 40.9231 0 38.7231 0 35.9231V5.9231C0 3.1231 2.2 0.923096 5 0.923096H130C132.8 0.923096 135 3.1231 135 5.9231V35.9231C135 38.6231 132.8 40.9231 130 40.9231Z" fill="black"/>
  <path d="M130 1.7231C132.3 1.7231 134.2 3.6231 134.2 5.9231V35.9231C134.2 38.2231 132.3 40.1231 130 40.1231H5C2.7 40.1231 0.8 38.2231 0.8 35.9231V5.9231C0.8 3.6231 2.7 1.7231 5 1.7231H130ZM130 0.923096H5C2.2 0.923096 0 3.1231 0 5.9231V35.9231C0 38.7231 2.2 40.9231 5 40.9231H130C132.8 40.9231 135 38.7231 135 35.9231V5.9231C135 3.2231 132.8 0.923096 130 0.923096Z" fill="#A6A6A6"/>
  <path d="M47.4 11.1231C47.4 11.9231 47.2 12.6231 46.7 13.1231C46.1 13.7231 45.4 14.0231 44.5 14.0231C43.6 14.0231 42.9 13.7231 42.3 13.1231C41.7 12.5231 41.4 11.8231 41.4 10.9231C41.4 10.0231 41.7 9.3231 42.3 8.7231C42.9 8.1231 43.6 7.8231 44.5 7.8231C44.9 7.8231 45.3 7.9231 45.7 8.1231C46.1 8.3231 46.4 8.5231 46.6 8.8231L46.1 9.32309C45.7 8.82309 45.2 8.6231 44.5 8.6231C43.9 8.6231 43.3 8.82309 42.9 9.32309C42.4 9.72309 42.2 10.3231 42.2 11.0231C42.2 11.7231 42.4 12.3231 42.9 12.7231C43.4 13.1231 43.9 13.4231 44.5 13.4231C45.2 13.4231 45.7 13.2231 46.2 12.7231C46.5 12.4231 46.7 12.0231 46.7 11.5231H44.5V10.8231H47.4C47.4 10.8231 47.4 11.0231 47.4 11.1231Z" fill="white" stroke="white" stroke-width="0.2" stroke-miterlimit="10"/>
  <path d="M52 8.6231H49.3V10.5231H51.8V11.2231H49.3V13.1231H52V13.9231H48.5V7.9231H52V8.6231Z" fill="white" stroke="white" stroke-width="0.2" stroke-miterlimit="10"/>
  <path d="M55.3 13.9231H54.5V8.6231H52.8V7.9231H57V8.6231H55.3V13.9231Z" fill="white" stroke="white" stroke-width="0.2" stroke-miterlimit="10"/>
  <path d="M59.9 13.9231V7.9231H60.7V13.9231H59.9Z" fill="white" stroke="white" stroke-width="0.2" stroke-miterlimit="10"/>
  <path d="M64.1 13.9231H63.3V8.6231H61.6V7.9231H65.7V8.6231H64L64.1 13.9231Z" fill="white" stroke="white" stroke-width="0.2" stroke-miterlimit="10"/>
  <path d="M73.6 13.1231C73 13.7231 72.3 14.0231 71.4 14.0231C70.5 14.0231 69.8 13.7231 69.2 13.1231C68.6 12.5231 68.3 11.8231 68.3 10.9231C68.3 10.0231 68.6 9.3231 69.2 8.7231C69.8 8.1231 70.5 7.8231 71.4 7.8231C72.3 7.8231 73 8.1231 73.6 8.7231C74.2 9.3231 74.5 10.0231 74.5 10.9231C74.5 11.8231 74.2 12.5231 73.6 13.1231ZM69.8 12.6231C70.2 13.0231 70.8 13.3231 71.4 13.3231C72 13.3231 72.6 13.1231 73 12.6231C73.4 12.2231 73.7 11.6231 73.7 10.9231C73.7 10.2231 73.5 9.6231 73 9.2231C72.6 8.8231 72 8.5231 71.4 8.5231C70.8 8.5231 70.2 8.7231 69.8 9.2231C69.4 9.6231 69.1 10.2231 69.1 10.9231C69.1 11.6231 69.3 12.2231 69.8 12.6231Z" fill="white" stroke="white" stroke-width="0.2" stroke-miterlimit="10"/>
  <path d="M75.6 13.9231V7.9231H76.5L79.4 12.6231V11.4231V7.9231H80.2V13.9231H79.4L76.3 9.0231V10.2231V13.9231H75.6Z" fill="white" stroke="white" stroke-width="0.2" stroke-miterlimit="10"/>
  <path d="M68.1 22.7231C65.7 22.7231 63.8 24.5231 63.8 27.0231C63.8 29.4231 65.7 31.3231 68.1 31.3231C70.5 31.3231 72.4 29.5231 72.4 27.0231C72.4 24.4231 70.5 22.7231 68.1 22.7231ZM68.1 29.5231C66.8 29.5231 65.7 28.4231 65.7 26.9231C65.7 25.4231 66.8 24.3231 68.1 24.3231C69.4 24.3231 70.5 25.3231 70.5 26.9231C70.5 28.4231 69.4 29.5231 68.1 29.5231ZM58.8 22.7231C56.4 22.7231 54.5 24.5231 54.5 27.0231C54.5 29.4231 56.4 31.3231 58.8 31.3231C61.2 31.3231 63.1 29.5231 63.1 27.0231C63.1 24.4231 61.2 22.7231 58.8 22.7231ZM58.8 29.5231C57.5 29.5231 56.4 28.4231 56.4 26.9231C56.4 25.4231 57.5 24.3231 58.8 24.3231C60.1 24.3231 61.2 25.3231 61.2 26.9231C61.2 28.4231 60.1 29.5231 58.8 29.5231ZM47.7 24.0231V25.8231H52C51.9 26.8231 51.5 27.6231 51 28.1231C50.4 28.7231 49.4 29.4231 47.7 29.4231C45 29.4231 43 27.3231 43 24.6231C43 21.9231 45.1 19.8231 47.7 19.8231C49.1 19.8231 50.2 20.4231 51 21.1231L52.3 19.8231C51.2 18.8231 49.8 18.0231 47.8 18.0231C44.2 18.0231 41.1 21.0231 41.1 24.6231C41.1 28.2231 44.2 31.2231 47.8 31.2231C49.8 31.2231 51.2 30.6231 52.4 29.3231C53.6 28.1231 54 26.4231 54 25.1231C54 24.7231 54 24.3231 53.9 24.0231H47.7ZM93.1 25.4231C92.7 24.4231 91.7 22.7231 89.5 22.7231C87.3 22.7231 85.5 24.4231 85.5 27.0231C85.5 29.4231 87.3 31.3231 89.7 31.3231C91.6 31.3231 92.8 30.1231 93.2 29.4231L91.8 28.4231C91.3 29.1231 90.7 29.6231 89.7 29.6231C88.7 29.6231 88.1 29.2231 87.6 28.3231L93.3 25.9231L93.1 25.4231ZM87.3 26.8231C87.3 25.2231 88.6 24.3231 89.5 24.3231C90.2 24.3231 90.9 24.7231 91.1 25.2231L87.3 26.8231ZM82.6 30.9231H84.5V18.4231H82.6V30.9231ZM79.6 23.6231C79.1 23.1231 78.3 22.6231 77.3 22.6231C75.2 22.6231 73.2 24.5231 73.2 26.9231C73.2 29.3231 75.1 31.1231 77.3 31.1231C78.3 31.1231 79.1 30.6231 79.5 30.1231H79.6V30.7231C79.6 32.3231 78.7 33.2231 77.3 33.2231C76.2 33.2231 75.4 32.4231 75.2 31.7231L73.6 32.4231C74.1 33.5231 75.3 34.9231 77.4 34.9231C79.6 34.9231 81.4 33.6231 81.4 30.5231V22.9231H79.6V23.6231ZM77.4 29.5231C76.1 29.5231 75 28.4231 75 26.9231C75 25.4231 76.1 24.3231 77.4 24.3231C78.7 24.3231 79.7 25.4231 79.7 26.9231C79.7 28.4231 78.7 29.5231 77.4 29.5231ZM101.8 18.4231H97.3V30.9231H99.2V26.2231H101.8C103.9 26.2231 105.9 24.7231 105.9 22.3231C105.9 19.9231 103.9 18.4231 101.8 18.4231ZM101.9 24.4231H99.2V20.1231H101.9C103.3 20.1231 104.1 21.3231 104.1 22.2231C104 23.3231 103.2 24.4231 101.9 24.4231ZM113.4 22.6231C112 22.6231 110.6 23.2231 110.1 24.5231L111.8 25.2231C112.2 24.5231 112.8 24.3231 113.5 24.3231C114.5 24.3231 115.4 24.9231 115.5 25.9231V26.0231C115.2 25.8231 114.4 25.5231 113.6 25.5231C111.8 25.5231 110 26.5231 110 28.3231C110 30.0231 111.5 31.1231 113.1 31.1231C114.4 31.1231 115 30.5231 115.5 29.9231H115.6V30.9231H117.4V26.1231C117.2 23.9231 115.5 22.6231 113.4 22.6231ZM113.2 29.5231C112.6 29.5231 111.7 29.2231 111.7 28.4231C111.7 27.4231 112.8 27.1231 113.7 27.1231C114.5 27.1231 114.9 27.3231 115.4 27.5231C115.2 28.7231 114.2 29.5231 113.2 29.5231ZM123.7 22.9231L121.6 28.3231H121.5L119.3 22.9231H117.3L120.6 30.5231L118.7 34.7231H120.6L125.7 22.9231H123.7ZM106.9 30.9231H108.8V18.4231H106.9V30.9231Z" fill="white"/>
  <path d="M10.4 8.4231C10.1 8.7231 9.90002 9.2231 9.90002 9.8231V31.9231C9.90002 32.5231 10.1 33.0231 10.4 33.3231L10.5 33.4231L22.9 21.0231V20.9231V20.8231L10.4 8.4231Z" fill="url(#paint0_linear_148_100)"/>
  <path d="M27 25.2231L22.9 21.1231V20.9231V20.8231L27 16.7231L27.1 16.8231L32 19.6231C33.4 20.4231 33.4 21.7231 32 22.5231L27 25.2231Z" fill="url(#paint1_linear_148_100)"/>
  <path d="M27.1 25.1231L22.9 20.9231L10.4 33.4231C10.9 33.9231 11.6 33.9231 12.5 33.5231L27.1 25.1231Z" fill="url(#paint2_linear_148_100)"/>
  <path d="M27.1 16.7231L12.5 8.4231C11.6 7.9231 10.9 8.0231 10.4 8.5231L22.9 20.9231L27.1 16.7231Z" fill="url(#paint3_linear_148_100)"/>
  <path opacity="0.2" d="M27 25.0231L12.5 33.2231C11.7 33.7231 11 33.6231 10.5 33.2231L10.4 33.3231L10.5 33.4231C11 33.8231 11.7 33.9231 12.5 33.4231L27 25.0231Z" fill="black"/>
  <path opacity="0.12" d="M10.4 33.2231C10.1 32.9231 10 32.4231 10 31.8231V31.9231C10 32.5231 10.2 33.0231 10.5 33.3231V33.2231H10.4Z" fill="black"/>
  <path opacity="0.12" d="M32 22.2231L27 25.0231L27.1 25.1231L32 22.2231C32.7 21.9231 33 21.4231 33 20.9231C33 21.4231 32.6 21.8231 32 22.2231Z" fill="black"/>
  <path opacity="0.25" d="M12.5 8.5231L32 19.6231C32.6 20.0231 33 20.4231 33 20.9231C33 20.4231 32.7 19.9231 32 19.5231L12.5 8.4231C11.1 7.6231 10 8.3231 10 9.9231V10.0231C10 8.4231 11.1 7.7231 12.5 8.5231Z" fill="white"/>
  </g>
  <defs>
  <linearGradient id="paint0_linear_148_100" x1="21.77" y1="9.6031" x2="4.98762" y2="26.3855" gradientUnits="userSpaceOnUse">
  <stop stop-color="#00A0FF"/>
  <stop offset="0.00657445" stop-color="#00A1FF"/>
  <stop offset="0.2601" stop-color="#00BEFF"/>
  <stop offset="0.5122" stop-color="#00D2FF"/>
  <stop offset="0.7604" stop-color="#00DFFF"/>
  <stop offset="1" stop-color="#00E3FF"/>
  </linearGradient>
  <linearGradient id="paint1_linear_148_100" x1="33.8344" y1="20.9731" x2="9.63752" y2="20.9731" gradientUnits="userSpaceOnUse">
  <stop stop-color="#FFE000"/>
  <stop offset="0.4087" stop-color="#FFBD00"/>
  <stop offset="0.7754" stop-color="#FFA500"/>
  <stop offset="1" stop-color="#FF9C00"/>
  </linearGradient>
  <linearGradient id="paint2_linear_148_100" x1="24.8155" y1="23.2076" x2="2.05723" y2="45.9659" gradientUnits="userSpaceOnUse">
  <stop stop-color="#FF3A44"/>
  <stop offset="1" stop-color="#C31162"/>
  </linearGradient>
  <linearGradient id="paint3_linear_148_100" x1="7.26172" y1="1.13489" x2="17.4243" y2="11.2974" gradientUnits="userSpaceOnUse">
  <stop stop-color="#32A071"/>
  <stop offset="0.0685" stop-color="#2DA771"/>
  <stop offset="0.4762" stop-color="#15CF74"/>
  <stop offset="0.8009" stop-color="#06E775"/>
  <stop offset="1" stop-color="#00F076"/>
  </linearGradient>
  <clipPath id="clip0_148_100">
  <rect width="135" height="40" fill="white" transform="translate(0 0.923096)"/>
  </clipPath>
  </defs>
</svg>
