<svg width="182" height="56" viewBox="0 0 182 56" fill="none" xmlns="http://www.w3.org/2000/svg">
<g clip-path="url(#clip0_253_61)">
<path d="M11.2549 28.0161C10.735 31.6353 12.8023 35.0884 16.2839 36.3581C15.4014 35.5037 14.664 34.5426 14.132 33.4509C13.0682 31.3031 12.6209 29.0841 13.443 26.7702C13.721 25.987 13.7694 25.2157 13.6364 24.4207C13.5034 23.6138 13.3342 22.8187 13.2254 22.0118C13.1528 21.466 13.2858 21.371 13.854 21.5134C14.4101 21.6558 14.9541 21.8338 15.4981 21.9999C16.441 22.2729 17.3477 22.2847 18.3028 21.9525C19.0281 21.7033 19.7534 21.4897 20.4909 21.2998L18.3995 19.959C18.1335 20.042 17.8555 20.1369 17.5895 20.22C17.1301 20.3743 16.707 20.3861 16.2476 20.2556C15.4981 20.0302 14.7486 19.7928 13.987 19.6504C12.3912 19.3419 11.3758 20.1844 11.3395 21.7745C11.3395 21.9881 11.3395 22.2135 11.3758 22.4271C11.4966 23.1391 11.6538 23.8392 11.7505 24.5512C11.811 24.9902 11.811 25.453 11.7505 25.8921C11.6054 26.6159 11.3637 27.3042 11.2549 28.0161Z" fill="#FDA425"/>
<path d="M42.1181 21.7984C42.1664 20.2083 41.0905 19.3539 39.5069 19.6506C38.6969 19.8049 37.9111 20.1015 37.1011 20.2676C36.7506 20.3388 36.3395 20.3388 36.001 20.232C34.4778 19.7455 32.9425 19.3302 31.383 19.0454L33.7404 21.5136C34.3086 21.6797 34.8768 21.8577 35.445 22.0476C36.0736 22.2612 36.6901 22.3086 37.3188 22.1425C38.0683 21.9526 38.8178 21.7272 39.5794 21.5255C40.1838 21.3593 40.3047 21.4543 40.2322 22.0832C40.1476 22.7477 40.0025 23.4122 39.8816 24.0767C39.7366 24.9311 39.6278 25.7736 39.9542 26.6279C40.9575 29.286 40.9696 31.9559 39.9662 34.6258C39.7124 35.314 39.6882 36.0023 39.797 36.7024C39.9421 37.5567 40.1113 38.3992 40.2201 39.2536C40.2926 39.8232 40.1476 39.93 39.5673 39.7757C38.9266 39.5977 38.2859 39.4079 37.6331 39.2299C36.8473 39.0044 36.0857 39.0282 35.2878 39.3011C32.5436 40.2266 29.7269 40.8318 26.8134 40.8437C23.7428 40.8556 20.8052 40.191 17.9038 39.2655C17.3961 39.0993 16.7916 39.0756 16.2718 39.1587C15.4377 39.2892 14.6398 39.5859 13.8298 39.7995C13.2858 39.9419 13.1407 39.8351 13.2012 39.2892C13.2737 38.684 13.4188 38.0907 13.5034 37.4855C13.5276 37.3431 13.4913 37.1296 13.3946 37.0584C12.9352 36.6786 12.4517 36.3227 11.8714 35.8836C11.678 37.1058 11.3757 38.2806 11.3153 39.4672C11.2307 41.1166 12.3791 41.9828 14.0353 41.6387C14.7848 41.4845 15.5102 41.2471 16.2476 41.0335C16.6949 40.903 17.1059 40.9268 17.5532 41.081C20.5634 42.0896 23.634 42.7304 26.8376 42.7067C29.9445 42.6948 32.9425 42.0659 35.8802 41.0691C36.3274 40.9149 36.7385 40.8912 37.1858 41.0335C37.9353 41.259 38.6727 41.4963 39.4343 41.6506C41.0301 41.971 42.1302 41.1047 42.106 39.5028C42.0939 38.7315 41.9247 37.9483 41.7796 37.1889C41.6224 36.3701 41.5983 35.6107 41.8884 34.7919C42.8676 32.0033 42.8434 29.191 41.8521 26.4025C41.6224 25.7736 41.6103 25.1565 41.7191 24.5157C41.8884 23.602 42.0939 22.7002 42.1181 21.7984Z" fill="#FDA425"/>
<path d="M18.4599 16.3632C18.1456 16.7904 17.8555 17.2532 17.5411 17.7397C17.6499 17.8109 17.7708 17.8821 17.8796 17.9533C18.6775 18.4636 19.4512 18.9619 20.2249 19.4484C20.6964 19.7451 21.1678 20.0536 21.6514 20.3503C21.9294 19.9231 22.1954 19.5315 22.4735 19.1043C22.4493 19.0925 22.4372 19.0806 22.413 19.0687C21.5789 18.5347 20.7689 18.0126 19.8985 17.4549C19.8501 17.4312 19.8139 17.3956 19.7655 17.3719C19.9831 17.2888 20.1403 17.2295 20.2974 17.1701C21.5184 16.7548 22.7273 16.2802 23.9725 15.9598C24.8671 15.7225 25.2056 15.0817 25.6045 14.4053C24.2143 13.5153 22.8603 12.6491 21.4701 11.771C21.1799 12.1982 20.914 12.5898 20.6359 13.017C21.4701 13.5509 22.28 14.073 23.1625 14.6308C21.6756 15.1291 20.2853 15.5919 18.9072 16.0666C18.7621 16.1496 18.5687 16.2327 18.4599 16.3632Z" fill="#FDA425"/>
<path d="M24.2263 24.4323C25.4715 24.8357 26.6925 25.2392 27.9376 25.6427C28.0706 25.2511 28.1915 24.9069 28.3124 24.5154C27.4904 24.2424 26.7046 23.9932 25.8462 23.6966C26.8617 23.0321 27.7563 22.3794 28.7113 21.8455C29.3641 21.4776 29.6543 20.9555 29.7752 20.2198C29.3037 20.0655 28.8322 19.9113 28.3728 19.757C27.5992 19.5078 26.8255 19.2467 26.0397 18.9976C25.9671 19.1993 25.9067 19.401 25.8342 19.5909C25.7737 19.7689 25.7133 19.9469 25.6528 20.1249C26.4265 20.3859 27.1398 20.6232 27.9376 20.8843C27.031 21.4776 26.2331 22.0709 25.3627 22.5337C24.5648 22.9609 24.4318 23.6729 24.2263 24.4323Z" fill="#FDA425"/>
<path d="M8.45026 10.0625C9.24814 11.1542 10.0339 12.2459 10.8318 13.3494C11.4846 12.8867 12.1132 12.4476 12.766 11.9967C12.0649 11.0355 11.3879 10.0981 10.6867 9.13693C10.445 8.80468 10.2032 8.47242 9.96139 8.1283C10.0944 8.08084 10.2273 8.03337 10.3603 7.98591C10.4087 7.98591 10.445 7.98591 10.4812 7.98591C11.678 8.04524 12.8628 8.0927 14.0596 8.15203C15.2322 8.21136 16.4169 8.25883 17.5896 8.30629C17.8313 8.31816 18.1094 8.33003 18.3028 8.21136C18.6776 7.98591 19.0281 7.73671 19.3908 7.47566C19.6084 7.3214 19.826 7.16714 20.0557 7.00101C19.8865 6.76368 19.7051 6.51449 19.5359 6.27717C18.2303 4.46163 16.9247 2.66983 15.607 0.830566C14.9542 1.28148 14.3255 1.72053 13.6848 2.17145C14.5794 3.42927 15.4498 4.63963 16.3686 5.92118C13.8903 5.81438 11.5571 5.70759 9.22396 5.61266C9.03054 5.60079 8.78876 5.61266 8.6316 5.70759C7.89417 6.1941 7.18092 6.70435 6.41931 7.23833C6.8666 7.85538 7.30181 8.46056 7.7491 9.0776C7.97879 9.39799 8.20848 9.73024 8.45026 10.0625Z" fill="#FDA425"/>
<path d="M31.5523 28.0161L31.0083 32.2049L26.7771 33.0118L30.9357 33.5458L31.8666 37.699L32.4348 33.6051L36.6417 32.7033L32.3743 32.1456L31.5523 28.0161Z" fill="#FDA425"/>
<path d="M35.7955 28.7756L36.0615 26.7583L38.1408 26.3074L36.0373 26.0345L35.6384 24.0054L35.3603 26.0701L33.281 26.4617L35.3361 26.7227L35.7955 28.7756Z" fill="#FDA425"/>
<path d="M26.7167 55.8304C19.5842 55.8304 12.8748 53.1012 7.82159 48.1529C2.78047 43.2047 0 36.619 0 29.606C0 23.7322 1.93424 18.1788 5.58512 13.551L6.34673 12.6373L8.26888 15.592C5.07738 19.6384 3.38492 24.4798 3.38492 29.606C3.38492 42.2317 13.854 52.5078 26.7167 52.5078C39.5794 52.5078 50.0485 42.2317 50.0485 29.606C50.0485 23.8628 47.8725 18.3687 43.9194 14.1324C39.9904 9.93179 34.6592 7.33309 28.8927 6.81097C28.1795 6.73978 27.4421 6.71604 26.7167 6.71604L24.9638 3.51216C24.9638 3.51216 26.2815 3.40536 26.7167 3.3935C27.5509 3.36977 28.385 3.4291 29.207 3.50029C35.8076 4.10547 41.9247 7.0839 46.4218 11.9016C50.9431 16.743 53.4334 23.044 53.4334 29.6179C53.4334 36.619 50.6529 43.2047 45.6118 48.1648C40.5586 53.113 33.8492 55.8304 26.7167 55.8304Z" fill="#FDA425"/>
<g clip-path="url(#clip1_253_61)">
<path d="M61.8454 38.5989C61.2782 37.9371 61 37.3467 61 36.8274C61 36.298 61.4709 35.6058 62.4019 34.7404C62.9477 34.2416 63.5149 33.9972 64.1249 33.9972C64.7349 33.9972 65.5804 34.5164 66.6612 35.5447C66.9609 35.8908 67.3997 36.2268 67.9562 36.5526C68.5234 36.8682 69.037 37.0311 69.5186 37.0311C71.5306 37.0311 72.5365 36.2471 72.5365 34.6793C72.5365 34.2008 72.2583 33.814 71.7125 33.4882C71.156 33.1726 70.4711 32.9384 69.647 32.7959C68.823 32.6534 67.9348 32.4192 66.9823 32.1036C66.0298 31.7779 65.1416 31.4012 64.3176 30.9634C63.4935 30.5256 62.8086 29.8435 62.2521 28.9069C61.6956 27.9703 61.4281 26.8403 61.4281 25.5269C61.4281 23.7148 62.1344 22.1368 63.5577 20.7828C64.9704 19.4288 66.9074 18.7568 69.3474 18.7568C70.6423 18.7568 71.8302 18.9197 72.9004 19.2353C73.9706 19.5509 74.709 19.8767 75.1264 20.2127L75.9397 20.8031C76.6139 21.4038 76.9457 21.9026 76.9457 22.3201C76.9457 22.7375 76.6888 23.2974 76.1644 24.0202C75.426 25.0485 74.6662 25.5677 73.885 25.5677C73.4355 25.5677 72.8683 25.3641 72.1941 24.9467C72.1299 24.9059 72.0014 24.8041 71.8195 24.6412C71.6376 24.4783 71.4664 24.346 71.3165 24.2442C70.8563 23.9795 70.2785 23.8471 69.5828 23.8471C68.8765 23.8471 68.2986 24.01 67.8277 24.3256C67.3569 24.6412 67.1321 25.0892 67.1321 25.6593C67.1321 26.2294 67.4104 26.6875 67.9562 27.0337C68.5127 27.3798 69.1976 27.6242 70.0216 27.7463C70.8456 27.8685 71.7446 28.0619 72.7185 28.3164C73.6923 28.571 74.5913 28.8866 75.4153 29.2632C76.2394 29.6297 76.9243 30.2813 77.4808 31.1976C78.0373 32.1138 78.3048 33.2439 78.3048 34.5775C78.3048 35.9214 78.0266 37.0921 77.4594 38.1204C76.8922 39.1384 76.1644 39.9325 75.2548 40.4823C73.4997 41.5716 71.6269 42.1214 69.6363 42.1214C68.6197 42.1214 67.6565 41.9992 66.7469 41.765C65.8372 41.5309 65.0988 41.2356 64.5423 40.8793C63.3972 40.2176 62.5946 39.5762 62.1344 38.9654L61.8454 38.5989Z" fill="#FDA425"/>
<path d="M81.1257 20.5488C81.1257 20.0703 81.1471 19.7242 81.1792 19.4798C81.2113 19.2457 81.3077 18.9708 81.4575 18.6654C81.7571 18.1054 82.6026 17.8306 83.9938 17.8306C85.3101 17.8306 86.1342 18.1054 86.4659 18.6654C86.6372 18.9708 86.7442 19.2559 86.7763 19.5002C86.8084 19.7445 86.8298 20.111 86.8298 20.5793V34.8933C86.8298 35.6365 86.894 36.1048 87.0224 36.2982C87.1508 36.4917 87.4398 36.5935 87.8786 36.5935C88.3173 36.5935 88.617 36.6138 88.7668 36.6444C88.9166 36.6749 89.0986 36.7665 89.3233 36.9091C89.7514 37.1738 89.9761 37.9068 89.9761 39.1081C89.9761 40.4112 89.7621 41.1951 89.3233 41.4903C88.7561 41.8568 87.4184 41.9281 85.2994 41.6736C83.63 41.47 82.5491 40.9406 82.0461 40.0956C81.4361 39.0877 81.1364 37.4792 81.1364 35.27V20.5488H81.1257Z" fill="#FDA425"/>
<path d="M109.824 31.6966C109.824 32.959 109.492 33.9058 108.828 34.5065C108.165 35.1173 107.437 35.4227 106.634 35.4227H98.9291C98.9291 36.003 99.2823 36.4815 99.9993 36.8785C100.716 37.2654 101.433 37.469 102.14 37.469C103.392 37.469 104.376 37.3469 105.093 37.1025L105.447 36.9804C105.971 36.7564 106.399 36.6444 106.741 36.6444C107.437 36.6444 108.026 37.1127 108.529 38.0391C108.807 38.5991 108.946 39.0674 108.946 39.4644C108.946 41.2969 106.634 42.2132 102.022 42.2132C100.417 42.2132 98.9933 41.9485 97.7519 41.4293C96.5105 40.8999 95.5367 40.2076 94.841 39.3423C93.4712 37.6726 92.797 35.8096 92.797 33.7429C92.797 31.1469 93.6745 29.07 95.4403 27.5124C97.2489 25.9344 99.4428 25.1606 102.086 25.1606C105.093 25.1606 107.309 26.1685 108.711 28.1945C109.46 29.2533 109.824 30.424 109.824 31.6966ZM102.964 32.6027C103.788 32.6027 104.194 32.2769 104.194 31.6152C104.194 31.1367 104.002 30.76 103.627 30.4749C103.253 30.1899 102.707 30.0372 102.001 30.0372C101.294 30.0372 100.599 30.312 99.903 30.8516C99.2074 31.4014 98.8649 31.9817 98.8649 32.6027H102.964Z" fill="#FDA425"/>
<path d="M129.671 31.6966C129.671 32.959 129.339 33.9058 128.676 34.5065C128.012 35.1173 127.284 35.4227 126.482 35.4227H118.777C118.777 36.003 119.13 36.4815 119.847 36.8785C120.564 37.2654 121.281 37.469 121.987 37.469C123.239 37.469 124.224 37.3469 124.941 37.1025L125.294 36.9804C125.818 36.7564 126.246 36.6444 126.589 36.6444C127.284 36.6444 127.873 37.1127 128.376 38.0391C128.654 38.5991 128.793 39.0674 128.793 39.4644C128.793 41.2969 126.482 42.2132 121.869 42.2132C120.264 42.2132 118.841 41.9485 117.599 41.4293C116.358 40.8999 115.384 40.2076 114.688 39.3423C113.319 37.6726 112.644 35.8096 112.644 33.7429C112.644 31.1469 113.522 29.07 115.288 27.5124C117.096 25.9344 119.29 25.1606 121.934 25.1606C124.941 25.1606 127.156 26.1685 128.558 28.1945C129.307 29.2533 129.671 30.424 129.671 31.6966ZM122.811 32.6027C123.635 32.6027 124.042 32.2769 124.042 31.6152C124.042 31.1367 123.849 30.76 123.475 30.4749C123.1 30.1899 122.554 30.0372 121.848 30.0372C121.142 30.0372 120.446 30.312 119.75 30.8516C119.055 31.4014 118.712 31.9817 118.712 32.6027H122.811Z" fill="#FDA425"/>
<path d="M132.492 46.204V28.1537C132.492 27.6752 132.513 27.3291 132.545 27.1051C132.577 26.8811 132.674 26.6165 132.824 26.3314C133.123 25.7715 133.851 25.4966 134.996 25.4966C136.141 25.4966 136.922 25.6391 137.318 25.914C137.714 26.1889 137.95 26.5961 138.014 27.1357C138.838 26.0667 140.133 25.5271 141.899 25.5271C143.664 25.5271 145.334 26.3212 146.918 27.9094C148.502 29.4976 149.294 31.3403 149.294 33.4375C149.294 35.5347 148.512 37.3876 146.939 38.9655C145.366 40.5537 143.697 41.3478 141.92 41.3478C140.144 41.3478 138.859 40.8693 138.057 39.9225V46.1632C138.057 46.6417 138.035 46.9879 138.003 47.2119C137.971 47.4358 137.875 47.7005 137.714 47.9958C137.554 48.291 137.276 48.5048 136.89 48.627C136.505 48.7491 135.97 48.8102 135.296 48.8102C134.621 48.8102 134.086 48.7491 133.69 48.627C133.294 48.5048 133.006 48.3012 132.845 48.0059C132.684 47.7209 132.588 47.4562 132.556 47.2322C132.503 47.0286 132.492 46.6825 132.492 46.204ZM138.924 31.6457C138.421 32.2056 138.174 32.8063 138.174 33.468C138.174 34.1298 138.431 34.7304 138.934 35.2802C139.448 35.8299 140.09 36.0946 140.882 36.0946C141.674 36.0946 142.348 35.8299 142.894 35.2903C143.45 34.7508 143.718 34.1501 143.718 33.468C143.718 32.7859 143.461 32.1751 142.937 31.6253C142.412 31.0756 141.738 30.8109 140.903 30.8109C140.09 30.8109 139.416 31.0857 138.924 31.6457Z" fill="#FDA425"/>
</g>
<path d="M169.141 31.6966C169.141 32.959 168.809 33.9058 168.146 34.5065C167.482 35.1173 166.755 35.4227 165.952 35.4227H158.247C158.247 36.003 158.6 36.4815 159.317 36.8785C160.034 37.2654 160.751 37.469 161.457 37.469C162.709 37.469 163.694 37.3469 164.411 37.1025L164.764 36.9804C165.288 36.7564 165.716 36.6444 166.059 36.6444C166.755 36.6444 167.343 37.1127 167.846 38.0391C168.124 38.5991 168.263 39.0674 168.263 39.4644C168.263 41.2969 165.952 42.2132 161.339 42.2132C159.734 42.2132 158.311 41.9485 157.069 41.4293C155.828 40.8999 154.854 40.2076 154.159 39.3423C152.789 37.6726 152.115 35.8096 152.115 33.7429C152.115 31.1469 152.992 29.07 154.758 27.5124C156.566 25.9344 158.771 25.1606 161.414 25.1606C164.422 25.1606 166.637 26.1685 168.039 28.1945C168.777 29.2533 169.141 30.424 169.141 31.6966ZM162.292 32.6027C163.116 32.6027 163.523 32.2769 163.523 31.6152C163.523 31.1367 163.33 30.76 162.955 30.4749C162.581 30.1899 162.035 30.0372 161.329 30.0372C160.622 30.0372 159.927 30.312 159.231 30.8516C158.536 31.4014 158.193 31.9817 158.193 32.6027H162.292Z" fill="#FDA425"/>
</g>
<defs>
<clipPath id="clip0_253_61">
<rect width="182" height="55" fill="white" transform="translate(0 0.830566)"/>
</clipPath>
<clipPath id="clip1_253_61">
<rect width="104" height="31" fill="white" transform="translate(61 17.8306)"/>
</clipPath>
</defs>
</svg>
